<?xml version="1.0" encoding="utf-8"?>
<!-- Generator: Adobe Illustrator 26.3.1, SVG Export Plug-In . SVG Version: 6.00 Build 0)  -->
<svg version="1.0" id="Laag_5" xmlns="http://www.w3.org/2000/svg" xmlns:xlink="http://www.w3.org/1999/xlink" x="0px" y="0px"
	 width="200px"
	 viewBox="0 0 982.2 558.4" enable-background="new 0 0 982.2 558.4" xml:space="preserve">
<rect x="162.5" y="526.7" fill="#FFDA40" width="94.7" height="29.9"/>
<rect x="328.7" y="526.7" fill="#FFDA40" width="171.4" height="29.9"/>
<rect x="616.7" y="526.7" fill="#FFDA40" width="82.3" height="29.9"/>
<rect x="784" y="526.7" fill="#FFDA40" width="133.4" height="29.9"/>
<polyline fill="none" stroke="#FFDA40" stroke-width="3" points="187.5,529.1 187.5,416.3 164.6,393.4 52,393.4 7.7,350 7.7,89
	54.4,42.3 189.6,42.3 "/>
<polyline fill="none" stroke="#FFDA40" stroke-width="3" points="193.9,529.1 193.9,413.3 167.2,386.6 55,386.6 14.5,347.1 14.5,92
	57,49.5 189.6,49.5 "/>
<polyline fill="none" stroke="#FFDA40" stroke-width="3" points="200.3,529.1 200.3,410.3 170.8,380.8 58,380.8 20.3,343.1 20.3,95
	60.2,55.1 163.2,55.1 189.6,63.9 "/>
<line fill="none" stroke="#FFDA40" stroke-width="3" x1="206.7" y1="529.1" x2="206.7" y2="21.7"/>
<polyline fill="none" stroke="#FFDA40" stroke-width="3" points="213.1,529.1 213.1,38.2 229.9,21.4 "/>
<polyline fill="none" stroke="#FFDA40" stroke-width="3" points="219.5,529.1 219.5,47 237.7,28.9 "/>
<polyline fill="none" stroke="#FFDA40" stroke-width="3" points="225.9,529.1 225.9,49.5 241.6,33.8 "/>
<polyline fill="none" stroke="#FFDA40" stroke-width="3" points="232.3,529.1 232.3,248.4 339.7,248.4 "/>
<polyline fill="none" stroke="#FFDA40" stroke-width="3" points="238.7,529.1 238.7,255.1 339.7,255.1 "/>
<polyline fill="none" stroke="#FFDA40" stroke-width="3" points="181.1,529.1 181.1,419.3 161.4,399.5 49,399.5 1.5,353 1.5,86
	50.9,36.6 165.1,36.6 189.6,23.9 "/>
<polyline fill="none" stroke="#FFDA40" stroke-width="3" points="641.9,529.1 641.9,385.3 603.1,343 603.1,89 649.8,42.3
	758.5,42.3 785,28.6 "/>
<polyline fill="none" stroke="#FFDA40" stroke-width="3" points="648.3,529.1 648.3,382.3 609.9,340.1 609.9,92 652.4,49.5
	785,49.5 "/>
<polyline fill="none" stroke="#FFDA40" stroke-width="3" points="654.7,529.1 654.7,379.3 615.7,336.1 615.7,95 655.6,55.1
	758.6,55.1 785,63.9 "/>
<polyline fill="none" stroke="#FFDA40" stroke-width="3" points="635.5,529.1 635.5,388.3 596.9,346 596.9,86 646.4,36.6 646.2,8.2
	"/>
<polyline fill="none" stroke="#FFDA40" stroke-width="3" points="347.2,529.1 347.2,238.6 240.4,238.6 "/>
<polyline fill="none" stroke="#FFDA40" stroke-width="3" points="353.6,529.1 353.6,230 242.1,230 "/>
<polyline fill="none" stroke="#FFDA40" stroke-width="3" points="360,529.1 360,80.4 347.3,67.7 "/>
<polyline fill="none" stroke="#FFDA40" stroke-width="3" points="366.4,529.1 366.4,76.5 354.1,64.2 354.1,31.3 "/>
<line fill="none" stroke="#FFDA40" stroke-width="3" x1="372.8" y1="529.1" x2="372.8" y2="55.7"/>
<line fill="none" stroke="#FFDA40" stroke-width="3" x1="379.2" y1="529.1" x2="379.2" y2="29.9"/>
<polyline fill="none" stroke="#FFDA40" stroke-width="3" points="404.8,529.1 404.8,255.3 391.9,228.3 "/>
<polyline fill="none" stroke="#FFDA40" stroke-width="3" points="411.2,529.1 411.2,247.6 398.4,222.5 "/>
<polyline fill="none" stroke="#FFDA40" stroke-width="3" points="417.6,529.1 417.6,237.9 404.1,214.3 "/>
<polyline fill="none" stroke="#FFDA40" stroke-width="3" points="424,529.1 424,228.8 411.2,207.1 "/>
<polyline fill="none" stroke="#FFDA40" stroke-width="3" points="443.2,529.1 443.2,249.5 452.8,226.1 "/>
<line fill="none" stroke="#FFDA40" stroke-width="3" x1="449.6" y1="529.1" x2="449.6" y2="248.1"/>
<polyline fill="none" stroke="#FFDA40" stroke-width="3" points="456,529.1 456,248.9 465.6,229 "/>
<line fill="none" stroke="#FFDA40" stroke-width="3" x1="462.4" y1="529.1" x2="462.4" y2="253.3"/>
<polyline fill="none" stroke="#FFDA40" stroke-width="3" points="468.8,529.1 468.8,379.1 534.9,379.1 564,319 541.7,271.8
	470.6,271.8 "/>
<polyline fill="none" stroke="#FFDA40" stroke-width="3" points="475.2,529.1 475.2,386.1 539.4,386.1 572.4,319 545.1,260.5
	481.3,260.5 "/>
<polyline fill="none" stroke="#FFDA40" stroke-width="3" points="481.6,529.1 481.6,392.2 546.1,392.2 580,319 547.7,252 490,252
	"/>
<polyline fill="none" stroke="#FFDA40" stroke-width="3" points="661.1,529.1 661.1,381.2 756.4,381.2 787,365 "/>
<polyline fill="none" stroke="#FFDA40" stroke-width="3" points="667.5,529.1 667.5,387.6 785,387.6 "/>
<polyline fill="none" stroke="#FFDA40" stroke-width="3" points="673.9,529.1 673.9,394 785,393.8 "/>
<polyline fill="none" stroke="#FFDA40" stroke-width="3" points="680.5,529.1 680.5,400.6 754.7,400.6 787,411.5 "/>
<polyline fill="none" stroke="#FFDA40" stroke-width="3" points="802.8,529.1 802.8,254.8 790.2,229.3 "/>
<polyline fill="none" stroke="#FFDA40" stroke-width="3" points="809.1,529.1 809.1,244.8 796.5,219.3 "/>
<polyline fill="none" stroke="#FFDA40" stroke-width="3" points="815.6,529.1 815.6,234.8 803,209.3 "/>
<polyline fill="none" stroke="#FFDA40" stroke-width="3" points="822,529.1 822,224.8 809.4,199.3 "/>
<polyline fill="none" stroke="#FFDA40" stroke-width="3" points="854.1,529.1 854.1,390.9 839.1,375.9 839.1,250.5 863.7,225.9
	941.1,225.9 965.7,250.5 965.7,283.6 940.9,308.4 866.9,308.4 "/>
<polyline fill="none" stroke="#FFDA40" stroke-width="3" points="860.5,529.1 860.5,386.9 845.3,371.8 845.3,253.5 866.6,232.1
	938.1,232.1 959.6,253.6 959.6,280.6 937.9,302.3 872.9,302.3 "/>
<polyline fill="none" stroke="#FFDA40" stroke-width="3" points="866.9,529.1 866.9,382.9 851.7,367.8 851.7,256.5 869.9,238.3
	935.1,238.3 953.4,256.6 953.4,277.6 935.1,295.9 882.4,295.9 "/>
<polyline fill="none" stroke="#FFDA40" stroke-width="3" points="873.3,529.1 873.3,378.9 858.3,364 858.3,259.5 873,244.9
	932.1,244.9 946.4,259.2 946.4,274.6 932.1,289 891.4,289 "/>
<polyline fill="none" stroke="#FFDA40" stroke-width="3" points="879.7,529.1 879.7,379.2 977.7,379.2 "/>
<polyline fill="none" stroke="#FFDA40" stroke-width="3" points="886.1,529.1 886.1,389.2 971.7,389.2 "/>
<polyline fill="none" stroke="#FFDA40" stroke-width="3" points="892.5,529.1 892.5,399.2 963.3,399.2 "/>
<polyline fill="none" stroke="#FFDA40" stroke-width="3" points="898.9,529.1 898.9,409.2 955.9,409.2 "/>
<circle fill="#FFDA40" cx="189.6" cy="23.9" r="3.6"/>
<circle fill="#FFDA40" cx="206.7" cy="21.7" r="3.6"/>
<circle fill="#FFDA40" cx="228.6" cy="21.7" r="3.6"/>
<circle fill="#FFDA40" cx="237.7" cy="28.4" r="3.6"/>
<circle fill="#FFDA40" cx="242.1" cy="33.8" r="3.6"/>
<circle fill="#FFDA40" cx="347.3" cy="67.7" r="3.6"/>
<circle fill="#FFDA40" cx="354.1" cy="32.9" r="3.6"/>
<circle fill="#FFDA40" cx="372.8" cy="55.7" r="3.6"/>
<circle fill="#FFDA40" cx="391.9" cy="229" r="3.6"/>
<circle fill="#FFDA40" cx="398.4" cy="222.5" r="3.6"/>
<circle fill="#FFDA40" cx="404.3" cy="214.3" r="3.6"/>
<circle fill="#FFDA40" cx="411.2" cy="207.1" r="3.6"/>
<circle fill="#FFDA40" cx="452.8" cy="227" r="3.6"/>
<circle fill="#FFDA40" cx="465.6" cy="230" r="3.6"/>
<circle fill="#FFDA40" cx="462.4" cy="253.3" r="3.6"/>
<circle fill="#FFDA40" cx="489.2" cy="252" r="3.6"/>
<circle fill="#FFDA40" cx="646.2" cy="8.2" r="3.6"/>
<circle fill="#FFDA40" cx="785.5" cy="28.6" r="3.6"/>
<circle fill="#FFDA40" cx="785.5" cy="49.5" r="3.6"/>
<circle fill="#FFDA40" cx="787" cy="365" r="3.6"/>
<circle fill="#FFDA40" cx="789.9" cy="227.6" r="3.6"/>
<circle fill="#FFDA40" cx="797.2" cy="220.3" r="3.6"/>
<circle fill="#FFDA40" cx="803" cy="209.3" r="3.6"/>
<circle fill="#FFDA40" cx="809.4" cy="200.3" r="3.6"/>
<circle fill="#FFDA40" cx="867.5" cy="309.1" r="3.6"/>
<circle fill="#FFDA40" cx="977.7" cy="379.2" r="3.6"/>
<circle fill="#FFDA40" cx="972.2" cy="389.2" r="3.6"/>
<circle fill="#FFDA40" cx="962.7" cy="399.2" r="3.6"/>
<circle fill="#FFDA40" cx="955.4" cy="409.2" r="3.6"/>
<circle fill="#FFDA40" cx="874.7" cy="301.9" r="3.6"/>
<circle fill="#FFDA40" cx="892.6" cy="288.1" r="3.6"/>
<circle fill="#FFDA40" cx="883.6" cy="295" r="3.6"/>
<circle fill="#FFDA40" cx="787" cy="387" r="3.6"/>
<circle fill="#FFDA40" cx="787" cy="393.8" r="3.6"/>
<circle fill="#FFDA40" cx="787" cy="412" r="3.6"/>
<circle fill="#FFDA40" cx="785.5" cy="64.7" r="3.6"/>
<circle fill="#FFDA40" cx="481.6" cy="260.5" r="3.6"/>
<circle fill="#FFDA40" cx="468.8" cy="271.8" r="3.6"/>
<circle fill="#FFDA40" cx="449.6" cy="248.4" r="3.6"/>
<circle fill="#FFDA40" cx="379.2" cy="31.3" r="3.6"/>
<circle fill="#FFDA40" cx="189.6" cy="42.3" r="3.6"/>
<circle fill="#FFDA40" cx="189.6" cy="49.5" r="3.6"/>
<circle fill="#FFDA40" cx="189.2" cy="64.2" r="3.6"/>
<circle fill="#FFDA40" cx="241.6" cy="230" r="3.6"/>
<circle fill="#FFDA40" cx="241.6" cy="238.6" r="3.6"/>
<circle fill="#FFDA40" cx="339.7" cy="248.4" r="3.6"/>
<circle fill="#FFDA40" cx="339.7" cy="255.1" r="3.6"/>
</svg>
